<?xml version="1.0" standalone="no"?>
<!DOCTYPE svg PUBLIC "-//W3C//DTD SVG 20010904//EN" "http://www.w3.org/TR/2001/REC-SVG-20010904/DTD/svg10.dtd">
<!-- Created using Krita: https://krita.org -->
<svg xmlns="http://www.w3.org/2000/svg" 
    xmlns:xlink="http://www.w3.org/1999/xlink"
    xmlns:krita="http://krita.org/namespaces/svg/krita"
    xmlns:sodipodi="http://sodipodi.sourceforge.net/DTD/sodipodi-0.dtd"
    width="144pt"
    height="96pt"
    viewBox="0 0 144 96">
<defs/>
<path id="shape0" transform="translate(1.51394532972094, 13.7108673078809)" fill="none" stroke="#fb10ff" stroke-width="0.9" stroke-linecap="square" stroke-linejoin="bevel" d="M0 63.0495C0.17557 63.1665 0.66354 60.4251 0.707867 60.1074C2.62885 46.3394 2.06506 0 22.4409 0C35.2445 0 33.4855 58.6955 30.2425 61.7843" sodipodi:nodetypes="cccc"/><path id="shape1" transform="translate(4.34252339585846, 42.5728241372955)" fill="none" stroke="#fb10ff" stroke-width="0.9" stroke-linecap="square" stroke-linejoin="bevel" d="M0.891492 3.38073C-6.74729 -1.71212 37.4724 0.187841 28.3477 1.20176" sodipodi:nodetypes="cc"/><path id="shape2" transform="translate(39.350503320441, 14.3192225663785)" fill="none" stroke="#fb10ff" stroke-width="0.9" stroke-linecap="square" stroke-linejoin="bevel" d="M0.870239 0.616686C-1.71884 -2.83565 2.24816 9.14027 2.72274 13.4294C4.29282 27.6192 4.95325 45.3511 1.36725 59.2178C1.00265 60.6277 1.12402 61.3761 0.237677 59.8002" sodipodi:nodetypes="cccc"/><path id="shape3" transform="translate(36.8568625698888, 10.3908956447471)" fill="none" stroke="#fb10ff" stroke-width="0.9" stroke-linecap="square" stroke-linejoin="bevel" d="M0.110702 3.80196C-0.928901 1.72262 5.65968 0.652875 7.08395 0.307575C17.0098 -2.09885 25.2972 10.1472 25.5337 18.5025C25.7709 26.8862 19.1306 33.0944 11.6776 35.1108C9.87719 35.5979 2.92556 36.0178 3.09278 35.9342" sodipodi:nodetypes="ccccc"/><path id="shape4" transform="translate(37.3465553066321, 45.1056707682598)" fill="none" stroke="#fb10ff" stroke-width="0.9" stroke-linecap="square" stroke-linejoin="bevel" d="M5.55505 0.867964C2.30045 -0.216971 12.3838 0.153804 15.8116 0.0144517C24.2633 -0.329136 34.6854 5.47576 34.0806 15.0865C32.9921 32.3833 -0.745786 29.205 0.0125951 27.4775" sodipodi:nodetypes="cccc"/><path id="shape5" transform="translate(69.2761906153922, 9.03518808573022)" fill="none" stroke="#fb10ff" stroke-width="0.9" stroke-linecap="square" stroke-linejoin="bevel" d="M39.8637 1.68337C39.8637 -3.1762 22.8245 3.95687 21.5194 4.69576C-21.5169 29.0618 5.03509 94.192 56.7622 49.8516" sodipodi:nodetypes="ccc"/><path id="shape6" transform="translate(1.51394532972094, 13.7799530912449)" fill="none" stroke="#fb10ff" stroke-width="4.7328" stroke-linecap="square" stroke-linejoin="bevel" d="M0 62.9804C8.61456 55.0832 -5.31516 -4.42177 22.7873 0.262278C37.8549 2.77371 30.0595 52.5189 28.7213 61.9361C28.6694 62.3016 28.3411 64.1547 28.2243 63.8238" sodipodi:nodetypes="cccc"/><path id="shape7" transform="translate(5.061770738588, 41.4148746414305)" fill="none" stroke="#fb10ff" stroke-width="4.7328" stroke-linecap="square" stroke-linejoin="bevel" d="M0.172244 4.53868C-2.4282 1.11682 25.2448 1.22521 27.3122 0" sodipodi:nodetypes="cc"/><path id="shape8" transform="translate(38.9556175172727, 15.8898341768118)" fill="none" stroke="#fb10ff" stroke-width="4.7328" stroke-linecap="square" stroke-linejoin="bevel" d="M0.105427 0C8.46142 5.57102 4.2839 34.6031 2.90678 43.1877C2.61978 44.9768 1.17526 61.8567 0 56.8941" sodipodi:nodetypes="ccc"/><path id="shape9" transform="translate(34.8289006309537, 9.44154299110027)" fill="none" stroke="#fb10ff" stroke-width="4.7328" stroke-linecap="square" stroke-linejoin="bevel" d="M0 6.41817C0 -5.57152 28.05 0.459234 29.0979 14.4311C29.8234 24.1049 20.0736 32.8652 11.9735 35.8894C8.63625 37.1354 3.27195 35.2318 8.0727 36.5321" sodipodi:nodetypes="cccc"/><path id="shape10" transform="translate(38.8316928686317, 42.9504440030701)" fill="none" stroke="#fb10ff" stroke-width="4.7328" stroke-linecap="square" stroke-linejoin="bevel" d="M2.62405 3.19389C4.46144 -4.15612 37.1701 1.76991 34.8245 14.9322C32.9248 25.5922 22.1352 31.481 12.3233 31.9322C8.46342 32.1096 -3.0353 30.4255 0.756487 31.169" sodipodi:nodetypes="cccc"/><path id="shape11" transform="translate(69.3704692168055, 9.03635062008853)" fill="none" stroke="#fb10ff" stroke-width="4.7328" stroke-linecap="square" stroke-linejoin="bevel" d="M39.7695 1.6822C39.5823 -0.389029 36.3268 -0.0427843 34.5885 0.14588C21.395 1.57782 9.48664 15.0826 3.32181 25.8717C1.18098 29.6184 -0.947163 42.5781 0.445159 38.4937" sodipodi:nodetypes="cccc"/><path id="shape12" transform="translate(73.5808807349643, 58.039569712884)" fill="none" stroke="#fb10ff" stroke-width="4.7328" stroke-linecap="square" stroke-linejoin="bevel" d="M0 4.00018C1.1213 1.00985 3.74118 9.26841 6.20514 11.3002C17.0438 20.2379 31.5435 14.4416 42.4118 9.07105C47.0487 6.77973 60.0733 -1.3538 55.1384 0.194519" sodipodi:nodetypes="cccc"/>
</svg>
